<?xml version="1.0" encoding="UTF-8"?>
<svg id="Layer_1" data-name="Layer 1" xmlns="http://www.w3.org/2000/svg" viewBox="0 0 144 144">
  <defs>
    <style>
      .cls-1 {
        fill: #5a9fd4;
      }
    </style>
  </defs>
  <polygon class="cls-1" points="27.09 76.09 39.59 76.09 38.73 59.65 27.09 76.09"/>
  <path class="cls-1" d="M72,.85C32.7.85.85,32.7.85,72s31.86,71.15,71.15,71.15,71.15-31.86,71.15-71.15S111.3.85,72,.85ZM57.44,95.96c-1.33-.09-3.13-.15-5.38-.17-2.25-.02-4.35-.03-6.28-.03-2.35,0-4.58.01-6.69.03-2.12.02-3.8.08-5.04.17l.28-1.38c2.21-.09,3.78-.49,4.73-1.21.94-.71,1.35-2.24,1.21-4.59l-.59-11.32h-13.55l-6.69,9.45c-1.24,1.75-1.79,3.16-1.66,4.24.14,1.08.79,1.89,1.97,2.42,1.17.53,2.63.86,4.38,1l-.28,1.38c-2.39-.09-4.3-.15-5.73-.17-1.43-.02-2.78-.03-4.07-.03-.97,0-1.77.01-2.42.03-.64.02-1.33.08-2.07.17l.28-1.38c.92-.28,1.76-.69,2.52-1.24.76-.55,1.6-1.39,2.52-2.52.92-1.13,2.05-2.61,3.38-4.45l28.15-39.61c.83.09,1.71.14,2.66.14s1.78-.05,2.52-.14l2.76,43.4c.14,1.66.56,2.79,1.28,3.42.71.62,1.41.96,2.1,1l-.28,1.38ZM129.34,49.01c-.87.3-1.55.85-2.04,1.66-.48.81-.96,2.06-1.42,3.76l-9.11,34.22c-.41,1.66-.59,2.9-.52,3.73.07.83.47,1.38,1.21,1.66.74.28,1.86.46,3.38.55l-.28,1.38c-1.7-.09-3.63-.15-5.8-.17-2.16-.02-4.46-.03-6.9-.03s-4.84.01-7.07.03c-2.23.02-4.01.08-5.35.17l.28-1.38c1.61-.09,2.84-.28,3.69-.55.85-.28,1.53-.83,2.04-1.66.51-.83.97-2.07,1.38-3.73l10-37.19-28.63,44.85h-1.52l-6.14-40.3-8,30.5c-.32,1.29-.47,2.54-.45,3.76.02,1.22.47,2.22,1.35,3,.87.78,2.44,1.22,4.69,1.31l-.28,1.38c-.55-.04-1.32-.08-2.31-.1-.99-.02-2.01-.04-3.07-.07-1.06-.02-2-.03-2.83-.03-1.2,0-2.39.01-3.59.03-1.2.02-2.18.08-2.97.17l.28-1.38c1.61-.09,2.91-.53,3.9-1.31.99-.78,1.78-1.78,2.38-3,.6-1.22,1.06-2.47,1.38-3.76l8.56-32.08c.46-1.7.64-2.96.55-3.76-.09-.8-.49-1.36-1.21-1.66-.71-.3-1.85-.47-3.42-.52l.35-1.38c1.29.05,2.98.09,5.07.14,2.09.05,4.29.07,6.59.07,1.15,0,2.28-.02,3.38-.07,1.1-.05,2.09-.09,2.97-.14l4,31.46,19.94-31.26h6.76c2.44,0,4.75-.02,6.93-.07,2.18-.05,4.13-.09,5.83-.14l-.34,1.38c-1.56.05-2.78.22-3.66.52Z"/>
</svg>