<?xml version="1.0" encoding="UTF-8"?>
<svg id="Layer_1" data-name="Layer 1" xmlns="http://www.w3.org/2000/svg" viewBox="0 0 144 144">
  <defs>
    <style>
      .cls-1 {
        fill: #5a9fd4;
      }
    </style>
  </defs>
  <polygon class="cls-1" points="40.21 54.94 39.83 54.94 37.21 64.18 33.9 75.34 46.22 75.34 42.91 64.18 40.21 54.94"/>
  <path class="cls-1" d="M127.11,4.5H16.89c-6.81,0-12.39,5.57-12.39,12.39v110.23c0,6.81,5.57,12.39,12.39,12.39h110.23c6.81,0,12.39-5.57,12.39-12.39V16.89c0-6.81-5.57-12.39-12.39-12.39ZM52.92,98.06l-3.85-12.78h-17.94l-3.85,12.78h-11.86l17.71-53.75h14.48l17.48,53.75h-12.17ZM123.76,98.06h-11.01v-35.27h-.23l-3.93,7.85-10.47,19.02-10.24-18.94-4.08-8.47h-.23v35.81h-11.01v-53.75h12.4l7.16,13.71,6.01,11.47h.15l5.93-11.47,7.08-13.71h12.47v53.75Z"/>
</svg>